<svg width="1458" height="484" viewBox="0 0 1458 484" fill="none" xmlns="http://www.w3.org/2000/svg">
<path d="M0 212.5C0 95.1395 95.1395 0 212.5 0H1480V425H212.5C95.1395 425 0 329.861 0 212.5Z" fill="#5889C5"/>
<path d="M665 221C665 98.9451 763.945 0 886 0H1480V484H886C763.945 484 665 385.055 665 263V221Z" fill="#2B4360"/>
<path d="M1480 484V425H1198.5H735L750 437.5L767 449.5L772.5 453L778.5 456.5L786 460.5L795.5 465L804.5 468.5L813.5 472L824 475.5L836.5 478.5L848.5 481L862.5 483L876.5 484H919H1117H1480Z" fill="#AFAFAF"/>
</svg>
